<svg viewBox="0 0 15 15">
	<path fill-rule="evenodd" clip-rule="evenodd" d="M0.345953 12.9839C-0.115207 13.4451 -0.115207 14.1928 0.345953 14.654C0.807112 15.1152 1.5548 15.1152 2.01596 14.654L7.4996 9.17013L12.9833 14.6541C13.4445 15.1153 14.1922 15.1153 14.6533 14.6541C15.1145 14.1929 15.1145 13.4452 14.6533 12.984L9.1696 7.50004L14.6534 2.01597C15.1146 1.55479 15.1146 0.807067 14.6534 0.345885C14.1923 -0.115296 13.4446 -0.115295 12.9834 0.345887L7.4996 5.82995L2.01587 0.345971C1.55472 -0.11521 0.807028 -0.11521 0.345869 0.345971C-0.115291 0.807153 -0.115289 1.55488 0.34587 2.01606L5.82959 7.50004L0.345953 12.9839Z" />
</svg>
