<svg viewBox="0 0 29 29" xmlns="http://www.w3.org/2000/svg">
<path d="M1.84961 28C1.84961 28.4694 1.46944 28.8496 1 28.8496C0.530558 28.8496 0.150391 28.4694 0.150391 28L0.150391 1C0.150391 0.530558 0.530558 0.150391 1 0.150391C1.46944 0.150391 1.84961 0.530558 1.84961 1L1.84961 28Z" />
<path d="M22.8496 28C22.8496 28.4694 22.4694 28.8496 22 28.8496C21.5306 28.8496 21.1504 28.4694 21.1504 28V1C21.1504 0.530558 21.5306 0.150391 22 0.150391C22.4694 0.150391 22.8496 0.530558 22.8496 1V28Z" />
<path d="M8.84961 28L8.8457 28.0869C8.80218 28.5155 8.4401 28.8496 8 28.8496C7.5599 28.8496 7.19783 28.5155 7.1543 28.0869L7.15039 28L7.15039 7C7.15039 6.53056 7.53056 6.15039 8 6.15039C8.46944 6.15039 8.84961 6.53056 8.84961 7L8.84961 28Z" />
<path d="M28.8496 28L28.8457 28.0869C28.8022 28.5155 28.4401 28.8496 28 28.8496C27.5599 28.8496 27.1978 28.5155 27.1543 28.0869L27.1504 28L27.1504 7C27.1504 6.53056 27.5306 6.15039 28 6.15039C28.4694 6.15039 28.8496 6.53056 28.8496 7L28.8496 28Z" />
<path d="M15.8496 28C15.8496 28.4694 15.4694 28.8496 15 28.8496C14.5306 28.8496 14.1504 28.4694 14.1504 28L14.1504 14C14.1504 13.5306 14.5306 13.1504 15 13.1504C15.4694 13.1504 15.8496 13.5306 15.8496 14L15.8496 28Z" />
</svg>
