<svg viewBox="0 0 29 29" xmlns="http://www.w3.org/2000/svg">
<path d="M27.1504 8.93945C27.1504 5.55399 24.486 2.84961 21.25 2.84961C19.6932 2.84961 18.2011 3.74022 17.0312 4.74707C16.4596 5.23913 15.9947 5.73398 15.6729 6.10547C15.5125 6.29053 15.3888 6.44381 15.3066 6.54883C15.2657 6.6012 15.2354 6.64178 15.2158 6.66797C15.206 6.68105 15.1986 6.69053 15.1943 6.69629C15.1923 6.69908 15.1911 6.70122 15.1904 6.70215C15.0307 6.9242 14.7735 7.05566 14.5 7.05566C14.2264 7.05566 13.9693 6.92336 13.8096 6.70117V6.70215L13.8057 6.69629C13.8014 6.69053 13.794 6.68105 13.7842 6.66797C13.7646 6.64178 13.7343 6.6012 13.6934 6.54883C13.6112 6.44381 13.4875 6.29053 13.3271 6.10547C13.0053 5.73398 12.5404 5.23913 11.9688 4.74707C10.7989 3.74022 9.30676 2.84961 7.75 2.84961C4.51402 2.84961 1.84961 5.55399 1.84961 8.93945C1.84964 10.3685 2.12039 12.8304 3.78711 15.833C5.45598 18.8394 8.55143 22.4329 14.2676 26.082C14.3404 26.127 14.4202 26.1504 14.5 26.1504C14.5795 26.1504 14.6588 26.1267 14.7314 26.082C20.4476 22.4329 23.544 18.8394 25.2129 15.833C26.8796 12.8304 27.1504 10.3685 27.1504 8.93945ZM28.8496 8.93945C28.8496 10.6043 28.5297 13.3606 26.6992 16.6582C24.8706 19.9524 21.5598 23.7419 15.6484 27.5156L15.6455 27.5176C15.3029 27.7341 14.9063 27.8496 14.5 27.8496C14.0937 27.8496 13.6971 27.7341 13.3545 27.5176L13.3516 27.5156C7.44016 23.7419 4.12943 19.9524 2.30078 16.6582C0.470276 13.3606 0.150426 10.6043 0.150391 8.93945C0.150391 4.65957 3.53128 1.15039 7.75 1.15039C9.92059 1.15039 11.8038 2.36306 13.0771 3.45898C13.6632 3.96337 14.1458 4.46656 14.5 4.86621C14.8542 4.46656 15.3368 3.96337 15.9229 3.45898C17.1962 2.36306 19.0794 1.15039 21.25 1.15039C25.4687 1.15039 28.8496 4.65957 28.8496 8.93945Z" />
</svg>
