<svg viewBox="0 0 14 18" xmlns="http://www.w3.org/2000/svg">
<path d="M13 16.25C13.4142 16.25 13.75 16.5858 13.75 17C13.75 17.4142 13.4142 17.75 13 17.75L1 17.75C0.585786 17.75 0.25 17.4142 0.25 17C0.25 16.5858 0.585786 16.25 1 16.25L13 16.25Z" />
<path d="M12.3077 7.69629C12.6006 7.98918 12.6006 8.46492 12.3077 8.75781L7.53424 13.5303C7.24134 13.8232 6.76658 13.8232 6.47369 13.5303L1.70025 8.75781C1.40736 8.46492 1.40736 7.98918 1.70025 7.69629C1.99314 7.4034 2.46888 7.4034 2.76177 7.69629L6.25396 11.1895L6.25396 1C6.25396 0.585786 6.58975 0.25 7.00396 0.25C7.41818 0.25 7.75396 0.585786 7.75396 1L7.75396 11.1895L11.2462 7.69629C11.539 7.4034 12.0148 7.4034 12.3077 7.69629Z" />
</svg>
