<svg viewBox="0 0 19 8" xmlns="http://www.w3.org/2000/svg">
<path d="M1 3.49023C0.723858 3.49023 0.5 3.71409 0.5 3.99023C0.5 4.26638 0.723858 4.49023 1 4.49023V3.49023ZM18.3536 4.34379C18.5488 4.14853 18.5488 3.83194 18.3536 3.63668L15.1716 0.4547C14.9763 0.259438 14.6597 0.259438 14.4645 0.4547C14.2692 0.649963 14.2692 0.966545 14.4645 1.16181L17.2929 3.99023L14.4645 6.81866C14.2692 7.01392 14.2692 7.33051 14.4645 7.52577C14.6597 7.72103 14.9763 7.72103 15.1716 7.52577L18.3536 4.34379ZM1 3.99023V4.49023H18V3.99023V3.49023H1V3.99023Z" />
</svg>
