<svg viewBox="0 0 18 18" xmlns="http://www.w3.org/2000/svg">
<path d="M17.3574 14.1429C17.0021 14.1429 16.7146 13.855 16.7146 13.5V1.28571H4.50028C4.14526 1.28571 3.85742 0.997872 3.85742 0.642857C3.85742 0.287842 4.14526 0 4.50028 0H17.3574C17.7128 0 18.0003 0.287842 18.0003 0.642857V13.5C18.0003 13.855 17.7128 14.1429 17.3574 14.1429Z" />
<path d="M15.4287 16.0713C15.0734 16.0713 14.7859 15.7835 14.7859 15.4285V3.21418H2.57157C2.21655 3.21418 1.92871 2.92634 1.92871 2.57132C1.92871 2.21631 2.21655 1.92847 2.57157 1.92847H15.4287C15.784 1.92847 16.0716 2.21631 16.0716 2.57132V15.4285C16.0716 15.7835 15.784 16.0713 15.4287 16.0713Z" />
<rect y="4" width="14" height="14" rx="1" />
</svg>
