<svg viewBox="0 0 18 18" xmlns="http://www.w3.org/2000/svg">
<path d="M11.2357 2.7358L3.33333 1.87328V0.645996H15C15.7954 0.646786 16.5579 0.929839 17.1203 1.43305C17.6828 1.93627 17.9991 2.61855 18 3.33021V5.11968H12.6667V4.21212C12.6641 3.85378 12.5185 3.50804 12.2561 3.23732C11.9937 2.9666 11.6318 2.78873 11.2357 2.7358ZM12.6667 5.71617H18V6.90915L12.6667 6.91631V5.71617ZM18 17.646H12V13.4706C12.0003 12.9728 11.8017 12.4914 11.44 12.1132C11.0783 11.735 10.5773 11.4851 10.0277 11.4085L5.03333 10.976C4.98705 10.9722 4.94038 10.9769 4.89626 10.99C4.85214 11.0031 4.81153 11.0242 4.777 11.0521C4.74259 11.08 4.71509 11.1141 4.69626 11.1521C4.67743 11.1901 4.66769 11.2312 4.66767 11.2728V12.2776H0V9.61424C0.000790987 9.06133 0.246375 8.53122 0.682996 8.13994C1.11962 7.74867 1.71171 7.5281 2.32967 7.52652L18 7.50565V17.646Z" />
<path d="M4.8088 15.2733L3.36 12.8173C3.3233 12.7651 3.27088 12.7219 3.20794 12.6919C3.145 12.6618 3.07373 12.646 3.0012 12.646C2.92867 12.646 2.8574 12.6618 2.79446 12.6919C2.73153 12.7219 2.6791 12.7651 2.6424 12.8173L1.1912 15.2733C1.18088 15.2908 1.17244 15.309 1.166 15.3277C1.05733 15.5328 1.00081 15.7544 1 15.9786C1 16.4208 1.21071 16.8449 1.58579 17.1576C1.96086 17.4703 2.46957 17.646 3 17.646C3.53043 17.646 4.03914 17.4703 4.41421 17.1576C4.78929 16.8449 5 16.4208 5 15.9786C4.99933 15.7548 4.94294 15.5335 4.8344 15.3287C4.828 15.3096 4.81943 15.2911 4.8088 15.2733Z" />
</svg>
