<svg viewBox="0 0 18 18" xmlns="http://www.w3.org/2000/svg">
<path d="M16.4926 15.3746L16.7507 13.3905C17.129 10.4831 17.129 7.53461 16.7507 4.62713L16.5004 2.70313C16.5239 2.60348 16.6284 2.23711 17.0851 1.07964C17.197 0.796144 17.1315 0.472335 16.9181 0.254724C16.7049 0.0372188 16.3826 -0.0347309 16.0971 0.0715376C14.61 0.624761 13.9917 0.783706 13.8594 0.790647H6.43745C6.30218 0.783565 5.66806 0.619793 4.14031 0.0493748C3.86502 -0.0534407 3.56016 0.00684629 3.3447 0.206628C3.12924 0.406481 3.04616 0.706013 3.12804 0.98842C3.4453 2.08261 3.51436 2.41469 3.52919 2.50257L3.25274 4.6272C3.1057 5.75764 3.01596 6.98128 2.98633 8.21094C3.1291 8.29117 3.26754 8.38042 3.40066 8.47912C3.97016 8.90134 4.41045 9.46397 4.68934 10.1216C5.66418 10.1715 6.58022 10.569 7.28812 11.2533C7.94166 11.8852 8.35705 12.7023 8.48238 13.5884C10.1658 14.0084 11.4134 15.4857 11.5372 17.2271H14.3847C14.4707 17.253 14.8207 17.3752 16.0168 17.9281C16.1215 17.9765 16.2324 18 16.3422 18C16.5352 18 16.7249 17.9272 16.8722 17.7879C17.1032 17.5694 17.1766 17.2372 17.0594 16.9416C16.6179 15.8287 16.5158 15.4725 16.4926 15.3746Z" />
<path d="M7.91913 14.5543L7.47968 14.4932L7.46372 14.0498C7.40558 12.4367 6.09484 11.1731 4.47974 11.1731C4.43517 11.1731 4.38986 11.1741 4.34507 11.1761L3.94037 11.1941L3.81775 10.808C3.42393 9.56791 2.33788 8.7666 1.05086 8.7666H0.874964L0.861328 17.6878H10.4915V17.5117C10.4914 16.0296 9.38553 14.7582 7.91913 14.5543ZM2.86863 14.0587C2.57234 14.0587 2.35293 13.8165 2.3401 13.5302C2.32731 13.2447 2.59217 13.0017 2.86863 13.0017C3.16492 13.0017 3.38432 13.2438 3.39715 13.5302C3.40994 13.8156 3.14508 14.0587 2.86863 14.0587ZM5.25287 16.302C4.95658 16.302 4.73717 16.0598 4.72434 15.7735C4.71155 15.488 4.97641 15.245 5.25287 15.245C5.54916 15.245 5.76856 15.4871 5.78139 15.7735C5.79415 16.0589 5.52932 16.302 5.25287 16.302Z" />
</svg>
