<svg viewBox="0 0 20 20" xmlns="http://www.w3.org/2000/svg">
<path d="M19.894 14.5999C19.8698 14.5477 19.8472 14.5044 19.8262 14.4697C19.4792 13.8447 18.8161 13.0777 17.8373 12.1682L17.8166 12.1474L17.8063 12.1372L17.7958 12.1267H17.7853C17.341 11.7032 17.0597 11.4185 16.9419 11.2727C16.7264 10.995 16.6781 10.7139 16.7959 10.4291C16.8791 10.2139 17.1918 9.75946 17.7331 9.06513C18.0178 8.69716 18.2433 8.40225 18.4099 8.18006C19.611 6.58329 20.1317 5.56293 19.9719 5.11859L19.9099 5.01475C19.8682 4.95224 19.7606 4.89505 19.5872 4.84289C19.4135 4.79085 19.1914 4.78224 18.9206 4.81692L15.9217 4.83764C15.8731 4.82043 15.8037 4.82203 15.7134 4.84289C15.6231 4.86375 15.5779 4.87422 15.5779 4.87422L15.5257 4.9003L15.4843 4.93163C15.4496 4.95235 15.4114 4.98878 15.3697 5.04087C15.3282 5.09277 15.2936 5.15367 15.2658 5.22308C14.9393 6.06308 14.5681 6.84407 14.1515 7.566C13.8946 7.99649 13.6587 8.36957 13.4433 8.68546C13.2281 9.00123 13.0476 9.23389 12.9019 9.38303C12.756 9.53231 12.6244 9.6519 12.5061 9.74225C12.3881 9.83263 12.298 9.87081 12.2355 9.85684C12.173 9.84287 12.1141 9.82901 12.0583 9.81516C11.9612 9.75264 11.8831 9.66762 11.8242 9.56003C11.765 9.45244 11.7252 9.31701 11.7044 9.15387C11.6836 8.99062 11.6714 8.8502 11.6679 8.73214C11.6646 8.61423 11.6661 8.44744 11.6732 8.23225C11.6804 8.01695 11.6836 7.87128 11.6836 7.79491C11.6836 7.53106 11.6888 7.24472 11.6991 6.9358C11.7096 6.62687 11.7181 6.38211 11.7252 6.20179C11.7323 6.02128 11.7356 5.83031 11.7356 5.62899C11.7356 5.42766 11.7233 5.26977 11.6991 5.15517C11.6752 5.04072 11.6385 4.92962 11.5901 4.82192C11.5414 4.71433 11.4701 4.6311 11.3766 4.57201C11.2829 4.513 11.1664 4.46617 11.0278 4.43137C10.6598 4.34811 10.1912 4.30306 9.62185 4.29606C8.33069 4.2822 7.50105 4.36558 7.13311 4.54608C6.98733 4.62234 6.85541 4.72655 6.73746 4.85836C6.61247 5.01114 6.59504 5.09452 6.68527 5.10823C7.10186 5.17064 7.39677 5.31992 7.57035 5.55593L7.6329 5.68099C7.68155 5.77123 7.73013 5.93098 7.77875 6.16003C7.8273 6.38907 7.85863 6.64245 7.87241 6.92C7.90706 7.42686 7.90706 7.86074 7.87241 8.22167C7.83765 8.58275 7.80483 8.86384 7.7735 9.06517C7.74217 9.2665 7.69534 9.42964 7.6329 9.55456C7.57035 9.67951 7.52873 9.75589 7.50787 9.78361C7.48704 9.81133 7.46968 9.8288 7.4559 9.83565C7.36566 9.87023 7.27182 9.88785 7.17469 9.88785C7.07742 9.88785 6.95947 9.83919 6.82065 9.74196C6.68188 9.64472 6.53785 9.51116 6.38856 9.34105C6.23928 9.1709 6.07093 8.93314 5.88342 8.62772C5.69606 8.3223 5.50166 7.96133 5.30033 7.54481L5.13376 7.24275C5.02963 7.04842 4.88739 6.76547 4.70689 6.39414C4.52628 6.02267 4.36664 5.66334 4.22786 5.31623C4.17238 5.17045 4.08904 5.05947 3.97799 4.98309L3.92587 4.95176C3.89122 4.92404 3.8356 4.89461 3.7593 4.86324C3.68289 4.83191 3.60316 4.80945 3.51978 4.79562L0.666572 4.81634C0.375011 4.81634 0.177184 4.88239 0.073018 5.01431L0.0313299 5.07672C0.0105041 5.11148 0 5.16699 0 5.2434C0 5.31977 0.0208258 5.41351 0.0625139 5.52449C0.47903 6.50341 0.931983 7.44751 1.42137 8.35691C1.91076 9.26632 2.33603 9.99887 2.69692 10.5539C3.05789 11.1093 3.42583 11.6336 3.80073 12.1263C4.17563 12.6192 4.42379 12.9351 4.54521 13.0739C4.66677 13.2129 4.76225 13.3169 4.83166 13.3863L5.09204 13.6362C5.25865 13.8028 5.5033 14.0024 5.82612 14.2349C6.14901 14.4676 6.50648 14.6966 6.89871 14.9224C7.291 15.1478 7.74739 15.3318 8.2681 15.4741C8.78875 15.6165 9.2955 15.6737 9.78842 15.6461H10.986C11.2288 15.6251 11.4128 15.5487 11.5379 15.4169L11.5793 15.3647C11.6072 15.3233 11.6333 15.2589 11.6573 15.1723C11.6817 15.0855 11.6938 14.99 11.6938 14.886C11.6867 14.5875 11.7094 14.3185 11.7614 14.079C11.8133 13.8396 11.8724 13.6591 11.9386 13.5376C12.0047 13.4161 12.0793 13.3136 12.1624 13.2306C12.2456 13.1473 12.3049 13.0968 12.3397 13.0795C12.3743 13.062 12.4019 13.0502 12.4227 13.043C12.5893 12.9875 12.7854 13.0413 13.0112 13.2046C13.2369 13.3677 13.4486 13.5692 13.6465 13.8086C13.8444 14.0482 14.0821 14.317 14.3597 14.6155C14.6376 14.9141 14.8805 15.136 15.0886 15.282L15.2968 15.4069C15.4359 15.4903 15.6164 15.5667 15.8386 15.6361C16.0604 15.7055 16.2547 15.7228 16.4215 15.6881L19.0872 15.6466C19.3509 15.6466 19.556 15.6029 19.7015 15.5163C19.8474 15.4295 19.934 15.3339 19.9619 15.2299C19.9898 15.1258 19.9913 15.0077 19.9672 14.8757C19.9425 14.744 19.9182 14.6519 19.894 14.5999Z" />
</svg>
