<svg width="19" height="19" viewBox="0 0 19 19" fill="none" xmlns="http://www.w3.org/2000/svg">
<g clip-path="url(#clip0_346_2801)">
<path d="M8.70833 10.8854C8.70833 10.5585 8.44075 10.2917 8.11458 10.2917H5.14583V12.6667C5.14583 13.1037 4.79117 13.4584 4.35417 13.4584C3.91717 13.4584 3.5625 13.1037 3.5625 12.6667V10.2917H0.59375C0.266792 10.2917 0 10.5585 0 10.8854V18.4063C0 18.7332 0.266792 19 0.59375 19H8.11458C8.44075 19 8.70833 18.7332 8.70833 18.4063V10.8854Z" fill="#101010"/>
<path d="M19.0003 10.8854C19.0003 10.5585 18.7327 10.2917 18.4066 10.2917H15.4378V12.6667C15.4378 13.1037 15.0832 13.4584 14.6462 13.4584C14.2092 13.4584 13.8545 13.1037 13.8545 12.6667V10.2917H10.8857C10.5588 10.2917 10.292 10.5585 10.292 10.8854V18.4063C10.292 18.7332 10.5588 19 10.8857 19H18.4066C18.7327 19 19.0003 18.7332 19.0003 18.4063V10.8854Z" fill="#101010"/>
<path d="M13.8538 0.59375C13.8538 0.267583 13.5863 0 13.2601 0H10.2913V2.375C10.2913 2.812 9.93668 3.16667 9.49967 3.16667C9.06267 3.16667 8.70801 2.812 8.70801 2.375V0H5.73926C5.4123 0 5.14551 0.267583 5.14551 0.59375V8.11458C5.14551 8.44154 5.4123 8.70833 5.73926 8.70833H13.2601C13.5863 8.70833 13.8538 8.44154 13.8538 8.11458V0.59375Z" fill="#101010"/>
</g>
<defs>
<clipPath id="clip0_346_2801">
<rect width="19" height="19" fill="white"/>
</clipPath>
</defs>
</svg>
