<svg width="19" height="19" viewBox="0 0 19 19" fill="none" xmlns="http://www.w3.org/2000/svg">
<path d="M9.5 0C14.7467 0 19 4.25329 19 9.5C19 14.7467 14.7467 19 9.5 19C4.25329 19 0 14.7467 0 9.5C0 4.25329 4.25329 0 9.5 0ZM9.5 2C5.35786 2 2 5.35786 2 9.5C2 13.6421 5.35786 17 9.5 17C13.6421 17 17 13.6421 17 9.5C17 5.35786 13.6421 2 9.5 2ZM9.5 3C13.0899 3 16 5.91015 16 9.5C16 13.0899 13.0899 16 9.5 16C5.91015 16 3 13.0899 3 9.5C3 5.91015 5.91015 3 9.5 3ZM7.31934 6V11.2598H6.2998V11.8301H7.31934V13H8.33008V11.8301H10.5498V11.2598H8.33008V10.6699H10.0693C10.9693 10.6699 11.6802 10.4703 12.2002 10.0703C12.7201 9.67033 12.9795 9.08999 12.9795 8.33008C12.9795 7.57011 12.7202 6.99294 12.2002 6.59961C11.6802 6.19961 10.9693 6 10.0693 6H7.31934ZM10.0693 6.87012C10.6825 6.87012 11.1528 6.99677 11.4795 7.25C11.8061 7.50331 11.9697 7.86659 11.9697 8.33984C11.9697 8.81984 11.8062 9.1902 11.4795 9.4502C11.1528 9.71004 10.6825 9.83984 10.0693 9.83984H8.33008V6.87012H10.0693Z" fill="#101010"/>
</svg>
