<svg width="19" height="19" viewBox="0 0 19 19" fill="none" xmlns="http://www.w3.org/2000/svg">
<path d="M15.6746 12.2866C14.7841 12.2866 14.0596 13.0112 14.0596 13.9016C14.0596 14.7921 14.7841 15.5166 15.6746 15.5166C16.5649 15.5166 17.2896 14.7921 17.2896 13.9016C17.2896 13.0112 16.5649 12.2866 15.6746 12.2866ZM15.6746 14.3766C15.4126 14.3766 15.1996 14.1636 15.1996 13.9016C15.1996 13.6396 15.4126 13.4266 15.6746 13.4266C15.9366 13.4266 16.1496 13.6396 16.1496 13.9016C16.1496 14.1636 15.9366 14.3766 15.6746 14.3766Z" fill="#101010"/>
<path d="M15.5199 5.5733H12.7296C12.5196 5.5733 12.3496 5.74356 12.3496 5.9533V13.3633C12.3496 13.573 12.5196 13.7433 12.7296 13.7433H13.1326C13.3207 13.7433 13.4873 13.6078 13.5117 13.4213C13.6608 12.2786 14.5722 11.5699 15.6748 11.5699C16.7774 11.5699 17.6888 12.2786 17.8379 13.4213C17.8622 13.6079 18.0287 13.7433 18.217 13.7433H18.6196C18.8293 13.7433 18.9996 13.573 18.9996 13.3633V9.6583C18.9996 9.56902 18.9682 9.48274 18.911 9.41453L15.8114 5.70953C15.7392 5.62329 15.6324 5.5733 15.5199 5.5733ZM13.1096 8.6133V6.7133C13.1096 6.50356 13.2796 6.3333 13.4896 6.3333H15.1635C15.2762 6.3333 15.3832 6.38347 15.4553 6.47009L17.0386 8.37009C17.2447 8.61765 17.0688 8.9933 16.7466 8.9933H13.4896C13.2796 8.9933 13.1096 8.82327 13.1096 8.6133Z" fill="#101010"/>
<path d="M0.38 13.7435H1.353C1.54111 13.7435 1.70773 13.608 1.73204 13.4214C1.88119 12.2788 2.79263 11.5701 3.89519 11.5701C4.99775 11.5701 5.90919 12.2788 6.05833 13.4214C6.08264 13.608 6.24907 13.7435 6.43737 13.7435H11.21C11.4198 13.7435 11.59 13.5732 11.59 13.3635V3.86346C11.59 3.65371 11.4197 3.48346 11.21 3.48346H0.38C0.170038 3.48346 0 3.65371 0 3.86346V13.3635C0 13.5732 0.170038 13.7435 0.38 13.7435Z" fill="#101010"/>
<path d="M3.89527 12.2866C3.00476 12.2866 2.28027 13.0112 2.28027 13.9016C2.28027 14.7921 3.00476 15.5166 3.89527 15.5166C4.7856 15.5166 5.51027 14.7921 5.51027 13.9016C5.51027 13.0112 4.7856 12.2866 3.89527 12.2866ZM3.89527 14.3766C3.63328 14.3766 3.42027 14.1636 3.42027 13.9016C3.42027 13.6396 3.63328 13.4266 3.89527 13.4266C4.15727 13.4266 4.37027 13.6396 4.37027 13.9016C4.37027 14.1636 4.15727 14.3766 3.89527 14.3766Z" fill="#101010"/>
</svg>
