<svg width="26" height="26" viewBox="0 0 26 26" fill="none" xmlns="http://www.w3.org/2000/svg">
<path d="M8.77638 24.2026C8.77638 24.1047 8.69681 24.0253 8.59865 24.0253C8.50049 24.0253 8.42091 24.1047 8.42091 24.2026C8.42091 24.3004 8.50049 24.3798 8.59865 24.3798C8.69681 24.3798 8.77638 24.3004 8.77638 24.2026ZM10.4014 24.2026C10.4014 25.1953 9.59428 26 8.59865 26C7.60302 26 6.7959 25.1953 6.7959 24.2026C6.7959 23.2098 7.60302 22.4051 8.59865 22.4051C9.59428 22.4051 10.4014 23.2098 10.4014 24.2026Z" fill="white"/>
<path d="M22.6397 24.2026C22.6397 24.1047 22.5601 24.0253 22.4619 24.0253C22.3638 24.0253 22.2842 24.1047 22.2842 24.2026C22.2842 24.3004 22.3638 24.3798 22.4619 24.3798C22.5601 24.3798 22.6397 24.3004 22.6397 24.2026ZM24.2647 24.2026C24.2647 25.1953 23.4576 26 22.4619 26C21.4663 26 20.6592 25.1953 20.6592 24.2026C20.6592 23.2098 21.4663 22.4051 22.4619 22.4051C23.4576 22.4051 24.2647 23.2098 24.2647 24.2026Z" fill="white"/>
<path d="M4.76871 0L4.84409 0.00316456C5.21421 0.0371001 5.51863 0.319998 5.57328 0.693038L8.43927 20.2532H23.5627L23.646 20.2571C24.0556 20.2987 24.3752 20.6439 24.3752 21.0633C24.3752 21.4827 24.0556 21.8279 23.646 21.8695L23.5627 21.8734H7.73626C7.33298 21.8733 6.99078 21.5783 6.93248 21.1804L4.0665 1.62025H0.812506C0.363771 1.62025 0 1.25755 0 0.810127C0 0.362706 0.363771 0 0.812506 0H4.76871Z" fill="white"/>
<path d="M24.6973 4.04828V4.04907C24.8655 4.04905 25.027 4.0835 25.175 4.14638L25.3186 4.21837L25.4487 4.3054C25.5308 4.3681 25.6036 4.43927 25.6669 4.51584L25.755 4.63451L25.8288 4.75951C25.8733 4.84451 25.9089 4.93297 25.9359 5.02296L25.97 5.15904L25.9906 5.29749C26.0007 5.38999 26.0027 5.48325 25.9962 5.57597L25.9803 5.71363L24.2157 16.6503C24.1699 16.9334 24.0423 17.2179 23.8229 17.4407C23.6 17.6669 23.2876 17.8197 22.9326 17.8196V17.8204H7.64815C7.19947 17.8204 6.83565 17.4577 6.83565 17.0103C6.83565 16.5629 7.19947 16.2002 7.64815 16.2002H22.6422L24.3418 5.66853H5.68751C5.23877 5.66853 4.875 5.30583 4.875 4.85841C4.875 4.41098 5.23877 4.04828 5.68751 4.04828H24.6973Z" fill="white"/>
</svg>
