<svg width="29" height="29" viewBox="0 0 29 29" fill="none" xmlns="http://www.w3.org/2000/svg">
<g clip-path="url(#clip0_493_16328)">
<path d="M11.1504 27C11.1504 26.9172 11.0828 26.8496 11 26.8496C10.9172 26.8496 10.8496 26.9172 10.8496 27C10.8496 27.0828 10.9172 27.1504 11 27.1504C11.0828 27.1504 11.1504 27.0828 11.1504 27ZM12.8496 27C12.8496 28.0217 12.0217 28.8496 11 28.8496C9.97827 28.8496 9.15039 28.0217 9.15039 27C9.15039 25.9783 9.97827 25.1504 11 25.1504C12.0217 25.1504 12.8496 25.9783 12.8496 27Z" fill="black"/>
<path d="M24.1504 27C24.1504 26.9172 24.0828 26.8496 24 26.8496C23.9172 26.8496 23.8496 26.9172 23.8496 27C23.8496 27.0828 23.9172 27.1504 24 27.1504C24.0828 27.1504 24.1504 27.0828 24.1504 27ZM25.8496 27C25.8496 28.0217 25.0217 28.8496 24 28.8496C22.9783 28.8496 22.1504 28.0217 22.1504 27C22.1504 25.9783 22.9783 25.1504 24 25.1504C25.0217 25.1504 25.8496 25.9783 25.8496 27Z" fill="black"/>
<path d="M5.34766 0.150391C5.76883 0.150391 6.12654 0.458442 6.18848 0.875L9.3418 22.1504H26L26.0869 22.1543C26.5155 22.1978 26.8496 22.5599 26.8496 23C26.8496 23.4401 26.5155 23.8022 26.0869 23.8457L26 23.8496H8.6084C8.18733 23.8495 7.82947 23.5415 7.76758 23.125L4.61426 1.84961H1C0.530558 1.84961 0.150391 1.46944 0.150391 1C0.150391 0.530558 0.530558 0.150391 1 0.150391H5.34766Z" fill="black"/>
<path d="M27.4717 5.15039V5.15137C27.7071 5.15129 27.9307 5.21507 28.125 5.32812C28.2699 5.41243 28.3932 5.5202 28.4941 5.6416L28.5879 5.7666L28.666 5.89844C28.7138 5.9888 28.7524 6.08278 28.7812 6.17871L28.8174 6.32324L28.8398 6.4707C28.856 6.61819 28.8529 6.76772 28.8291 6.91406L26.9287 18.6143C26.8797 18.9156 26.7428 19.2161 26.5098 19.4512C26.2731 19.6899 25.9436 19.8488 25.5713 19.8486V19.8496H9.11133C8.642 19.8495 8.26172 19.4694 8.26172 19C8.26172 18.5306 8.642 18.1505 9.11133 18.1504H25.2812L27.1162 6.84961H7C6.53056 6.84961 6.15039 6.46944 6.15039 6C6.15039 5.53056 6.53056 5.15039 7 5.15039H27.4717Z" fill="black"/>
</g>
<defs>
<clipPath id="clip0_493_16328">
<rect width="29" height="29" fill="white"/>
</clipPath>
</defs>
</svg>
