<svg width="20" height="20" viewBox="0 0 20 20" fill="none" xmlns="http://www.w3.org/2000/svg">
<path d="M16.8164 1.81818H12.7255V1.36363C12.7255 1.00198 12.5818 0.65513 12.3261 0.399399C12.0703 0.143668 11.7235 0 11.3618 0H8.18003C7.81837 0 7.47153 0.143668 7.21579 0.399399C6.96006 0.65513 6.8164 1.00198 6.8164 1.36363V1.81818H3.18004C2.81838 1.81818 2.47154 1.96185 2.21581 2.21758C1.96007 2.47331 1.81641 2.82015 1.81641 3.18181V4.0909C1.81765 4.37393 1.90692 4.64955 2.07185 4.87956C2.23678 5.10956 2.46919 5.28255 2.73686 5.37453L3.12504 17.7981C3.14084 18.3894 3.38757 18.951 3.81238 19.3625C4.23719 19.7741 4.80629 20.0029 5.39776 20H14.5996C15.191 20.0029 15.7601 19.7741 16.1849 19.3625C16.6097 18.951 16.8565 18.3894 16.8723 17.7981L17.2605 5.37453C17.528 5.2824 17.7602 5.10935 17.9249 4.87935C18.0897 4.64936 18.1788 4.37382 18.18 4.0909V3.18181C18.18 2.82015 18.0363 2.47331 17.7806 2.21758C17.5249 1.96185 17.178 1.81818 16.8164 1.81818ZM7.72548 1.36363C7.72548 1.24308 7.77337 1.12747 7.85862 1.04222C7.94386 0.956978 8.05948 0.909089 8.18003 0.909089H11.3618C11.4824 0.909089 11.598 0.956978 11.6833 1.04222C11.7685 1.12747 11.8164 1.24308 11.8164 1.36363V1.81818H7.72548V1.36363ZM15.9627 17.77C15.9531 18.1247 15.805 18.4615 15.5502 18.7084C15.2953 18.9552 14.9539 19.0925 14.5991 19.0909H5.39685C5.04203 19.0925 4.70065 18.9552 4.44579 18.7084C4.19093 18.4615 4.04284 18.1247 4.03322 17.77L3.64913 5.45453H16.3473L15.9627 17.77ZM17.2709 4.0909C17.2709 4.21145 17.223 4.32707 17.1378 4.41231C17.0525 4.49756 16.9369 4.54544 16.8164 4.54544H3.18004C3.05949 4.54544 2.94387 4.49756 2.85863 4.41231C2.77338 4.32707 2.7255 4.21145 2.7255 4.0909V3.18181C2.7255 3.06126 2.77338 2.94564 2.85863 2.8604C2.94387 2.77516 3.05949 2.72727 3.18004 2.72727H16.8164C16.9369 2.72727 17.0525 2.77516 17.1378 2.8604C17.223 2.94564 17.2709 3.06126 17.2709 3.18181V4.0909Z" fill="#101010"/>
<path d="M9.99751 7.72723C9.87696 7.72723 9.76135 7.77512 9.6761 7.86037C9.59086 7.94561 9.54297 8.06123 9.54297 8.18178V16.3636C9.54297 16.4841 9.59086 16.5997 9.6761 16.685C9.76135 16.7702 9.87696 16.8181 9.99751 16.8181C10.1181 16.8181 10.2337 16.7702 10.3189 16.685C10.4042 16.5997 10.4521 16.4841 10.4521 16.3636V8.18178C10.4521 8.06123 10.4042 7.94561 10.3189 7.86037C10.2337 7.77512 10.1181 7.72723 9.99751 7.72723Z" fill="#101010"/>
<path d="M13.1947 7.72724C13.1346 7.72377 13.0744 7.73263 13.0178 7.75327C12.9612 7.77391 12.9095 7.80591 12.8657 7.84729C12.822 7.88866 12.7871 7.93855 12.7633 7.99388C12.7396 8.04922 12.7274 8.10883 12.7275 8.16905L12.5002 16.3509C12.4985 16.4106 12.5086 16.47 12.5299 16.5258C12.5512 16.5816 12.5832 16.6326 12.6243 16.676C12.6653 16.7194 12.7145 16.7543 12.769 16.7787C12.8235 16.8031 12.8823 16.8165 12.942 16.8181H12.9547C13.0731 16.8182 13.1868 16.772 13.2717 16.6895C13.3566 16.607 13.406 16.4946 13.4093 16.3763L13.6365 8.19451C13.6382 8.13481 13.6282 8.07536 13.6069 8.01957C13.5856 7.96377 13.5535 7.91271 13.5125 7.86932C13.4714 7.82592 13.4223 7.79104 13.3677 7.76666C13.3132 7.74228 13.2544 7.72888 13.1947 7.72724Z" fill="#101010"/>
<path d="M6.80528 7.72729C6.74558 7.72894 6.68679 7.74234 6.63228 7.76672C6.57776 7.7911 6.52858 7.82598 6.48754 7.86938C6.44651 7.91277 6.41444 7.96383 6.39315 8.01962C6.37185 8.07542 6.36177 8.13487 6.36346 8.19457L6.59074 16.3764C6.59405 16.4947 6.6434 16.6071 6.72829 16.6896C6.81317 16.7721 6.9269 16.8182 7.04528 16.8182H7.05801C7.11771 16.8165 7.1765 16.8031 7.23101 16.7788C7.28553 16.7544 7.33471 16.7195 7.37575 16.6761C7.41678 16.6327 7.44885 16.5817 7.47014 16.5259C7.49143 16.4701 7.50152 16.4106 7.49983 16.3509L7.27255 8.16911C7.27091 8.10941 7.25751 8.05062 7.23313 7.99611C7.20875 7.94159 7.17387 7.89241 7.13047 7.85137C7.08708 7.81034 7.03602 7.77827 6.98022 7.75698C6.92443 7.73569 6.86498 7.7256 6.80528 7.72729Z" fill="#101010"/>
</svg>
