<svg width="29" height="26" viewBox="0 0 29 26" fill="none" xmlns="http://www.w3.org/2000/svg">
<path d="M27.3429 7.57831C27.3429 4.28312 24.6456 1.625 21.3357 1.625C19.7424 1.625 18.2227 2.50124 17.0375 3.48328C16.4572 3.96415 15.9852 4.44716 15.6587 4.80994C15.496 4.99078 15.3707 5.1405 15.2873 5.24316C15.2458 5.29432 15.2142 5.33334 15.1943 5.35901C15.1843 5.37184 15.1775 5.38191 15.1732 5.38757C15.1711 5.39039 15.1691 5.39219 15.1684 5.39313L15.1061 5.46692C14.9504 5.63073 14.7313 5.72559 14.5 5.72559C14.2687 5.72559 14.0496 5.63073 13.8939 5.46692L13.8316 5.39313L13.8268 5.38757C13.8225 5.38191 13.8157 5.37184 13.8057 5.35901C13.7858 5.33334 13.7542 5.29432 13.7127 5.24316C13.6293 5.1405 13.504 4.99078 13.3413 4.80994C13.0148 4.44716 12.5428 3.96415 11.9625 3.48328C10.7773 2.50124 9.2576 1.625 7.66429 1.625C4.35439 1.625 1.65714 4.28312 1.65714 7.57831C1.65716 8.97148 1.93114 11.3726 3.62015 14.3021C5.31151 17.2355 8.44732 20.7424 14.2403 24.3028C14.3199 24.3504 14.4096 24.375 14.5 24.375C14.5902 24.375 14.6794 24.3502 14.7589 24.3028C20.5519 20.7424 23.6885 17.2355 25.3799 14.3021C27.0689 11.3726 27.3428 8.97148 27.3429 7.57831ZM29 7.57831C29 9.20171 28.6754 11.8883 26.8226 15.1019C24.972 18.3115 21.6222 22.0027 15.6401 25.6794L15.6369 25.6818C15.2955 25.8895 14.9021 26 14.5 26C14.0979 26 13.7045 25.8895 13.3631 25.6818L13.3599 25.6794C7.37784 22.0027 4.02798 18.3115 2.17743 15.1019C0.324596 11.8883 1.46217e-05 9.20171 0 7.57831C0 3.39979 3.42482 0 7.66429 0C9.84552 3.54423e-08 11.7432 1.17422 13.0322 2.24231C13.6407 2.74652 14.1393 3.24948 14.5 3.64355C14.8607 3.24948 15.3593 2.74652 15.9678 2.24231C17.2568 1.17422 19.1545 0 21.3357 0C25.5752 1.58421e-07 29 3.39979 29 7.57831Z" fill="#FE0000"/>
</svg>
