<svg width="70" height="10" viewBox="0 0 70 10" fill="none" xmlns="http://www.w3.org/2000/svg">
<g opacity="0.95">
<path d="M1.21632 9.99776C0.899021 9.99776 0.564091 9.92386 0.334929 9.73913C0.193906 9.60981 -5.3796e-07 9.35118 -5.3796e-07 8.92628V0.114258H1.78041V7.98411C1.78041 8.09495 1.76279 8.27969 1.90381 8.40901C1.95669 8.44596 2.06246 8.51985 2.34451 8.51985H7.5271V9.99776H1.21632Z" fill="#101010"/>
<path d="M10.4172 1.10843C10.7522 0.277108 11.1223 1.40944e-07 11.9685 1.40944e-07C12.7794 1.40944e-07 13.1848 0.277108 13.5197 1.10843L17.0806 9.99434H15.212L14.2425 7.50038H9.69448L8.74258 9.99434H6.87402L10.4172 1.10843ZM10.1528 6.17026H13.7841L12.2505 2.14296C12.1976 1.99517 12.1095 1.73654 11.9861 1.73654C11.8627 1.73654 11.7746 2.01365 11.7217 2.14296L10.1528 6.17026Z" fill="#101010"/>
<path d="M23.4259 0.114258C23.9371 0.114258 24.6422 0.169679 25.1358 0.705421C25.6646 1.27811 25.7351 2.18333 25.7351 2.82991C25.7351 3.36565 25.6999 3.91987 25.2944 4.43714C25.03 4.76966 24.748 4.91746 24.413 4.9544V5.00983C24.8537 5.04677 25.2239 5.26846 25.4531 5.52709C25.8938 6.04436 25.8938 6.74637 25.8938 7.30058C25.8938 7.94717 25.8938 8.74154 25.3473 9.36965C24.8009 9.99776 24.2015 9.99776 23.6198 9.99776H19.1071C18.6311 9.99776 18.208 10.0532 17.8202 9.60981C17.7321 9.49897 17.5029 9.16644 17.5029 8.61222V1.53674C17.5029 1.16727 17.5911 0.779316 17.8026 0.520682C18.0846 0.169679 18.5077 0.114258 18.8074 0.114258H23.4259ZM19.2657 4.2524H22.7208C23.0733 4.2524 23.4435 4.2524 23.6903 3.9014C23.7608 3.80903 23.8842 3.56887 23.8842 2.90381C23.8842 2.6267 23.8666 2.14638 23.5669 1.8508C23.3025 1.59216 22.9852 1.59216 22.6855 1.59216H19.7769C19.6359 1.59216 19.4773 1.57369 19.3715 1.70301C19.2657 1.83232 19.2481 2.03554 19.2481 2.14638L19.2657 4.2524ZM19.2657 7.7809C19.2657 8.11343 19.301 8.27969 19.3715 8.35359C19.5125 8.51985 19.8122 8.50138 19.9532 8.50138H22.756C23.0381 8.50138 23.5317 8.48291 23.7961 8.15038C23.99 7.89174 24.0429 7.46685 24.0429 7.15279C24.0429 6.87568 24.0076 6.41384 23.849 6.1552C23.7432 6.00741 23.4788 5.74878 22.8971 5.74878H19.2833L19.2657 7.7809Z" fill="#101010"/>
<path d="M26.9339 8.51985H32.1694C33.0156 8.51985 33.0508 7.7809 33.0508 7.44837C33.0508 7.06042 32.9627 6.59858 32.1342 6.33994L28.4147 5.10219C28.2737 5.06525 27.6743 4.84356 27.3041 4.36324C26.8811 3.8275 26.8105 3.0516 26.8105 2.49738C26.8105 1.90622 26.8811 1.18574 27.4099 0.668473C27.9035 0.188153 28.5028 0.114258 28.9611 0.114258H34.3905V1.59216H29.5781C29.3313 1.59216 29.0493 1.61064 28.8378 1.81385C28.6086 2.03554 28.591 2.38654 28.591 2.57128C28.591 3.01465 28.7144 3.43955 29.4724 3.67971L32.9274 4.82509C33.562 5.0283 33.9851 5.24998 34.2671 5.52709C34.8312 6.09978 34.8841 6.96805 34.8841 7.4299C34.8841 8.05801 34.796 8.74154 34.4082 9.25881C33.9322 9.88692 33.3505 9.96081 32.7159 9.96081H26.9339V8.51985Z" fill="#101010"/>
<path d="M38.4455 1.10843C38.7805 0.277108 39.1507 1.40944e-07 39.9968 1.40944e-07C40.8077 1.40944e-07 41.2131 0.277108 41.548 1.10843L45.1089 9.99434H43.2403L42.2708 7.50038H37.7228L36.7709 9.99434H34.9023L38.4455 1.10843ZM38.1811 6.17026H41.8125L40.2788 2.14296C40.226 1.99517 40.1378 1.73654 40.0144 1.73654C39.891 1.73654 39.8029 2.01365 39.75 2.14296L38.1811 6.17026Z" fill="#101010"/>
<path d="M46.731 9.99776C46.4137 9.99776 46.0787 9.92386 45.8496 9.73913C45.7086 9.60981 45.5146 9.35118 45.5146 8.92628V0.114258H47.2951V7.98411C47.2951 8.09495 47.2774 8.27969 47.4185 8.40901C47.4713 8.44596 47.5771 8.51985 47.8592 8.51985H53.0417V9.99776H46.731Z" fill="#101010"/>
<path d="M55.0157 9.99719C54.6103 9.99719 54.2401 9.99719 53.9404 9.68314C53.6231 9.35061 53.5879 8.90724 53.5879 8.51928V1.5177C53.5879 1.12975 53.7113 0.723325 53.9052 0.483165C54.2225 0.132162 54.6808 0.095215 55.0334 0.095215H61.0797V1.57312H55.9853C55.8266 1.57312 55.6327 1.5916 55.4917 1.72091C55.3507 1.8687 55.3507 2.05344 55.3507 2.20123V4.19641H60.9563V5.67431H55.3683V7.98354C55.3683 8.13133 55.4212 8.2976 55.5093 8.37149C55.6151 8.48234 55.8266 8.50081 56.1087 8.50081H61.1502V9.97872H55.0157V9.99719Z" fill="#101010"/>
<path d="M62.0844 8.51985H67.3022C68.1484 8.51985 68.1836 7.7809 68.1836 7.44837C68.1836 7.06042 68.0955 6.59858 67.267 6.33994L63.5475 5.10219C63.4065 5.06525 62.8071 4.84356 62.4369 4.36324C62.0139 3.8275 61.9434 3.0516 61.9434 2.49738C61.9434 1.90622 62.0139 1.18574 62.5427 0.668473C63.0363 0.188153 63.6356 0.114258 64.094 0.114258H69.5233V1.59216H64.6933C64.4465 1.59216 64.1645 1.61064 63.9529 1.81385C63.7238 2.03554 63.7061 2.38654 63.7061 2.57128C63.7061 3.01465 63.8295 3.43955 64.5875 3.67971L68.0426 4.82509C68.6772 5.0283 69.1003 5.24998 69.3823 5.52709C69.9464 6.09978 69.9993 6.96805 69.9993 7.4299C69.9993 8.05801 69.9112 8.74154 69.5233 9.25881C69.0474 9.88692 68.4657 9.96081 67.8311 9.96081H62.0315V8.51985H62.0844Z" fill="#101010"/>
</g>
</svg>
