<svg width="25" height="26" viewBox="0 0 25 26" fill="none" xmlns="http://www.w3.org/2000/svg">
<path d="M0.862305 0C1.3383 0.000127344 1.72461 0.386276 1.72461 0.862305V25.1377C1.72461 25.6137 1.3383 25.9999 0.862305 26C0.386197 26 0 25.6138 0 25.1377V0.862305C0 0.386197 0.386197 0 0.862305 0ZM6.89648 5.2002C7.37259 5.2002 7.75879 5.58639 7.75879 6.0625V25.1377C7.75879 25.6138 7.37259 26 6.89648 26C6.42041 26 6.03418 25.6138 6.03418 25.1377V6.0625C6.03418 5.58642 6.42041 5.20023 6.89648 5.2002ZM12.9307 12.1338C13.4067 12.1338 13.7928 12.5191 13.793 12.9951V25.1377C13.793 25.6138 13.4068 26 12.9307 26C12.4547 25.9998 12.0693 25.6137 12.0693 25.1377V12.9951C12.0695 12.5193 12.4548 12.134 12.9307 12.1338ZM18.1035 0C18.5796 3.6656e-05 18.9658 0.38622 18.9658 0.862305V25.1377C18.9658 25.6138 18.5796 26 18.1035 26C17.6274 26 17.2412 25.6138 17.2412 25.1377V0.862305C17.2412 0.386197 17.6274 0 18.1035 0ZM24.1377 5.2002C24.6138 5.2002 25 5.58639 25 6.0625V25.1377C25 25.6138 24.6138 26 24.1377 26C23.6617 25.9999 23.2754 25.6137 23.2754 25.1377V6.0625C23.2754 5.58647 23.6617 5.20032 24.1377 5.2002Z" fill="#FE0000"/>
</svg>
