<svg width="16" height="18" viewBox="0 0 16 18" fill="none" xmlns="http://www.w3.org/2000/svg">
<g clip-path="url(#clip0_370_5060)">
<path fill-rule="evenodd" clip-rule="evenodd" d="M4.50829 7.63178C4.67675 8.69767 5.52314 10.0543 6.91269 10.5313C7.48385 10.7277 8.1071 10.7265 8.67744 10.5278C10.0445 10.0468 10.9175 8.6942 11.09 7.63178C11.2738 7.61687 11.5147 7.36741 11.7751 6.46898C12.1324 5.24307 11.7521 5.06021 11.4305 5.09002C11.4902 4.92626 11.5363 4.75809 11.5683 4.58714C12.112 1.40684 10.504 1.3 10.504 1.3C10.504 1.3 10.236 0.803077 9.53404 0.423926C9.06337 0.152109 8.40842 -0.0565977 7.54722 0.0139652C7.27739 0.0271588 7.01066 0.0761436 6.75444 0.159563C6.44413 0.264494 6.1506 0.411543 5.88252 0.596358C5.55367 0.799116 5.25262 1.04174 4.98662 1.31839C4.56189 1.74325 4.1826 2.29136 4.01669 2.97313C3.87886 3.48397 3.90949 4.01667 4.02435 4.59062C4.05591 4.76183 4.10201 4.9302 4.16218 5.094C3.84057 5.06418 3.46128 5.24655 3.8176 6.47296C4.08407 7.36741 4.32451 7.61687 4.50829 7.63178Z" fill="#FE0000"/>
<path fill-rule="evenodd" clip-rule="evenodd" d="M14.1145 11.8025C12.1578 11.318 10.5672 10.2297 10.5672 10.2297C10.5672 10.2297 10.3165 11.316 7.79879 11.4035C5.27698 11.3155 5.02684 10.2297 5.02684 10.2297C5.02684 10.2297 3.43769 11.318 1.4815 11.8025C0.0245684 12.1638 -0.0443475 13.8036 0.0133377 14.6126C0.0133377 14.6126 0.0975682 15.7118 0.181799 16.1963C0.181799 16.1963 3.03032 17.9966 7.80083 18.0001C12.5713 18.0036 15.4199 16.1963 15.4199 16.1963C15.5041 15.7118 15.5883 14.6126 15.5883 14.6126C15.6419 13.8036 15.573 12.1638 14.1145 11.8025Z" fill="#FE0000"/>
</g>
<defs>
<clipPath id="clip0_370_5060">
<rect width="15.6" height="18" fill="white"/>
</clipPath>
</defs>
</svg>
