<svg width="18" height="18" viewBox="0 0 18 18" fill="none" xmlns="http://www.w3.org/2000/svg">
<g clip-path="url(#clip0_370_5053)">
<path d="M5.79506 7.63173C5.95904 8.69763 6.78269 10.0542 8.13556 10.5313C8.69087 10.7251 9.29835 10.7288 9.85366 10.5275C11.1842 10.0468 12.0339 8.6939 12.2016 7.63173C12.3805 7.61682 12.6153 7.36712 12.8687 6.46894C13.2153 5.24278 12.8464 5.06016 12.5333 5.08998C12.5929 4.92227 12.6377 4.75083 12.6675 4.58685C13.1967 1.40779 11.6314 1.29971 11.6314 1.29971C11.6314 1.29971 11.3705 0.800307 10.6885 0.423889C10.2301 0.151825 9.59278 -0.056882 8.75423 0.0139293C8.48216 0.02511 8.225 0.0810137 7.98276 0.159279C7.67342 0.263632 7.39018 0.416435 7.13302 0.595327C6.81996 0.792853 6.52181 1.03883 6.26092 1.31835C5.84724 1.74321 5.47827 2.29107 5.31802 2.97309C5.18385 3.48368 5.21366 4.01663 5.32547 4.59057C5.35528 4.75828 5.40001 4.92599 5.45964 5.09371C5.14658 5.06389 4.77761 5.24651 5.12422 6.47266C5.38137 7.36712 5.61617 7.61682 5.79506 7.63173Z" fill="#8A8A8A"/>
<path d="M15.1463 12.2502C13.2419 11.7657 11.6952 10.6775 11.6952 10.6775L10.4877 14.4976L10.2603 15.2169L10.2566 15.2057L10.0591 15.8169L9.42179 14.0093C10.9871 11.8254 9.105 11.8477 9.00065 11.8515C8.8963 11.8477 7.01421 11.8254 8.57951 14.0093L7.94221 15.8169L7.74468 15.2057L7.74095 15.2169L7.51361 14.4976L6.30237 10.6775C6.30237 10.6775 4.7557 11.7657 2.85125 12.2502C1.4313 12.6118 1.36421 14.2516 1.42012 15.0603C1.42012 15.0603 1.50211 16.1598 1.5841 16.6443C1.5841 16.6443 4.35692 18.4444 9.00065 18.4481C13.6444 18.4481 16.4172 16.6443 16.4172 16.6443C16.4992 16.1598 16.5812 15.0603 16.5812 15.0603C16.6334 14.2516 16.5663 12.6118 15.1463 12.2502Z" fill="#8A8A8A"/>
</g>
<defs>
<clipPath id="clip0_370_5053">
<rect width="18" height="18" fill="white"/>
</clipPath>
</defs>
</svg>
