<svg width="18" height="18" viewBox="0 0 18 18" fill="none" xmlns="http://www.w3.org/2000/svg">
<path d="M3.97621 8C4.2974 8.41896 4.73228 9.10839 5.30691 9.5H12.6935C13.2681 9.10839 13.703 8.41896 14.0242 8C14.8973 6.86115 15.1327 4.37017 15.1423 4.32214C15.2074 3.99656 14.9584 3.69141 14.6252 3.69141H9.52752V1.65234C9.52752 1.32279 9.79563 1.05469 10.1252 1.05469C10.4547 1.05469 10.7228 1.32279 10.7228 1.65234C10.7228 1.94358 10.9589 2.17969 11.2502 2.17969C11.5414 2.17969 11.7775 1.94358 11.7775 1.65234C11.7775 0.741234 11.0363 0 10.1252 0C9.21407 0 8.47284 0.741234 8.47284 1.65234V3.69141H7.27752V3.09375C7.27752 2.80252 7.04142 2.56641 6.75018 2.56641C6.45895 2.56641 6.22284 2.80252 6.22284 3.09375V3.69141H3.37518C3.04313 3.69141 2.79275 3.99547 2.85807 4.32214C2.86767 4.37017 3.10311 6.86115 3.97621 8Z" fill="#333333"/>
<path d="M18 14.8604C18 16.5913 17.2877 17.9996 16.4121 18H1.58789C0.712296 17.9996 0 16.5913 0 14.8604V10H18V14.8604ZM5 13C4.44772 13 4 13.4477 4 14C4 14.5523 4.44772 15 5 15C5.55228 15 6 14.5523 6 14C6 13.4477 5.55228 13 5 13ZM13 13C12.4477 13 12 13.4477 12 14C12 14.5523 12.4477 15 13 15C13.5523 15 14 14.5523 14 14C14 13.4477 13.5523 13 13 13Z" fill="#333333"/>
</svg>
