<svg width="18" height="18" viewBox="0 0 18 18" fill="none" xmlns="http://www.w3.org/2000/svg">
<g clip-path="url(#clip0_600_5082)">
<path d="M8.99979 12.7974C9.33245 12.7974 9.60213 12.5278 9.60213 12.1951C9.60213 11.8624 9.33245 11.5928 8.99979 11.5928C8.66713 11.5928 8.39746 11.8624 8.39746 12.1951C8.39746 12.5278 8.66713 12.7974 8.99979 12.7974Z" fill="#101010"/>
<path d="M8.99979 6.40681C9.33245 6.40681 9.60213 6.13714 9.60213 5.80448C9.60213 5.47182 9.33245 5.20215 8.99979 5.20215C8.66713 5.20215 8.39746 5.47182 8.39746 5.80448C8.39746 6.13714 8.66713 6.40681 8.99979 6.40681Z" fill="#101010"/>
<path d="M17.5148 0.485684C17.202 0.172477 16.7858 0 16.343 0H10.0329C9.5902 0 9.17402 0.172406 8.86099 0.485473L0.485543 8.86092C0.172406 9.17402 0 9.59017 0 10.0327C0 10.4753 0.172477 10.8915 0.485543 11.2043L6.79553 17.5144C7.10849 17.8275 7.52463 18 7.96725 18C8.40983 18 8.82598 17.8276 9.13908 17.5145L17.5145 9.13901C17.8276 8.82598 18 8.4098 18 7.96714V1.65702C18 1.21416 17.8275 0.797977 17.5148 0.485684ZM9.00004 4.14763C9.91371 4.14763 10.6571 4.89097 10.6571 5.80465C10.6571 6.71832 9.91371 7.46167 9.00004 7.46167C8.08636 7.46167 7.34302 6.71832 7.34302 5.80465C7.34302 4.89097 8.08636 4.14763 9.00004 4.14763ZM9.00004 13.8523C8.08636 13.8523 7.34302 13.109 7.34302 12.1953C7.34302 11.2816 8.08636 10.5383 9.00004 10.5383C9.91371 10.5383 10.6571 11.2816 10.6571 12.1953C10.6571 13.109 9.91371 13.8523 9.00004 13.8523ZM12.3891 9.52731H5.61101C5.31977 9.52731 5.08366 9.2912 5.08366 8.99996C5.08366 8.70873 5.31977 8.47262 5.61101 8.47262H12.3891C12.6803 8.47262 12.9164 8.70873 12.9164 8.99996C12.9164 9.2912 12.6803 9.52731 12.3891 9.52731ZM14.6484 3.87889C14.3574 3.87889 14.1211 3.64264 14.1211 3.35155C14.1211 3.06046 14.3574 2.82421 14.6484 2.82421C14.9395 2.82421 15.1758 3.06046 15.1758 3.35155C15.1758 3.64264 14.9395 3.87889 14.6484 3.87889Z" fill="#101010"/>
</g>
<defs>
<clipPath id="clip0_600_5082">
<rect width="18" height="18" fill="white"/>
</clipPath>
</defs>
</svg>
