<svg width="18" height="18" viewBox="0 0 18 18" fill="none" xmlns="http://www.w3.org/2000/svg">
<path d="M14.5654 8.1582C14.5654 6.45872 13.8902 4.82867 12.6885 3.62695C11.4869 2.42543 9.85749 1.75008 8.1582 1.75C6.45872 1.75 4.82867 2.42524 3.62695 3.62695C2.42524 4.82867 1.75 6.45872 1.75 8.1582C1.75008 9.85749 2.42543 11.4869 3.62695 12.6885C4.82867 13.8902 6.45872 14.5654 8.1582 14.5654C9.85757 14.5653 11.4868 13.8901 12.6885 12.6885C13.8901 11.4868 14.5653 9.85757 14.5654 8.1582ZM16.0654 8.1582C16.0654 10.0025 15.4208 11.7799 14.2568 13.1904L17.5312 16.4697L17.582 16.5273C17.822 16.8221 17.8051 17.2569 17.5303 17.5312C17.2554 17.8056 16.8207 17.8216 16.5264 17.5811L16.4688 17.5303L13.1963 14.251C11.7848 15.4183 10.0053 16.0654 8.1582 16.0654C6.06104 16.0654 4.04939 15.2328 2.56641 13.75C1.08346 12.2671 0.250082 10.2554 0.25 8.1582C0.25 6.0609 1.08339 4.04942 2.56641 2.56641C4.04942 1.08339 6.0609 0.25 8.1582 0.25C10.2554 0.250082 12.2671 1.08346 13.75 2.56641C15.2328 4.04939 16.0654 6.06104 16.0654 8.1582Z" fill="white"/>
</svg>
