<svg width="17" height="17" viewBox="0 0 17 17" fill="none" xmlns="http://www.w3.org/2000/svg">
<path d="M8.5 0.864777C8.66074 0.864777 8.80626 0.959716 8.87109 1.10892V1.10989L10.8115 5.65091L10.9287 5.92532L11.2256 5.95267L16.1328 6.39798C16.2942 6.41252 16.4298 6.52157 16.4795 6.67532H16.4805C16.5306 6.82977 16.4837 6.99793 16.3613 7.10501V7.10599L12.6523 10.3579L12.4287 10.5542L12.4941 10.8443L13.5879 15.6617C13.6238 15.8204 13.5622 15.9843 13.4307 16.0796C13.2993 16.1747 13.1255 16.1817 12.9883 16.0992L12.9873 16.0982L8.75684 13.5689L8.5 13.4156L8.24316 13.5689L4.01074 16.0982C3.94518 16.1374 3.87466 16.1557 3.80469 16.1558C3.72296 16.1558 3.64065 16.1308 3.56836 16.0786C3.45394 15.9959 3.39173 15.8609 3.40234 15.7212L3.41113 15.6617L4.50488 10.8443L4.57129 10.5542L4.34766 10.3579L0.638672 7.10501L0.595703 7.06204C0.506219 6.95696 0.475498 6.81074 0.519531 6.67532C0.563576 6.54017 0.6737 6.44056 0.808594 6.40775L0.867188 6.39798L5.77441 5.95267L6.07129 5.92532L6.18848 5.65091L8.12891 1.11087C8.19353 0.960263 8.33896 0.864811 8.5 0.864777Z" stroke="#FFC107"/>
</svg>
