<svg width="29" height="29" viewBox="0 0 29 29" fill="none" xmlns="http://www.w3.org/2000/svg">
<g clip-path="url(#clip0_493_4808)">
<path d="M27.1504 28V26.7998C27.1503 24.9357 26.4657 23.1604 25.2666 21.8613C24.0695 20.5645 22.461 19.8496 20.7998 19.8496H8.2002C6.53902 19.8496 4.93047 20.5645 3.7334 21.8613C2.53433 23.1604 1.84966 24.9357 1.84961 26.7998V28C1.84961 28.4694 1.46944 28.8496 1 28.8496C0.530558 28.8496 0.150391 28.4694 0.150391 28V26.7998C0.150438 24.5267 0.983081 22.3344 2.48438 20.708C3.98782 19.0793 6.04228 18.1504 8.2002 18.1504H20.7998C22.9577 18.1504 25.0122 19.0793 26.5156 20.708C28.0169 22.3344 28.8496 24.5267 28.8496 26.7998V28C28.8496 28.4694 28.4694 28.8496 28 28.8496C27.5306 28.8496 27.1504 28.4694 27.1504 28Z" fill="#101010"/>
<path d="M20.1504 7.5C20.1504 4.37959 17.6204 1.84961 14.5 1.84961C11.3796 1.84961 8.84961 4.37959 8.84961 7.5C8.84961 10.6204 11.3796 13.1504 14.5 13.1504C17.6204 13.1504 20.1504 10.6204 20.1504 7.5ZM21.8496 7.5C21.8496 11.5593 18.5593 14.8496 14.5 14.8496C10.4407 14.8496 7.15039 11.5593 7.15039 7.5C7.15039 3.44071 10.4407 0.150391 14.5 0.150391C18.5593 0.150391 21.8496 3.44071 21.8496 7.5Z" fill="#101010"/>
</g>
<defs>
<clipPath id="clip0_493_4808">
<rect width="29" height="29" fill="white"/>
</clipPath>
</defs>
</svg>
