<svg width="20" height="20" viewBox="0 0 20 20" fill="none" xmlns="http://www.w3.org/2000/svg">
<g clip-path="url(#clip0_211_170)">
<path fill-rule="evenodd" clip-rule="evenodd" d="M17.086 3.05102C15.2059 1.16874 12.7056 0.131703 10.0417 0.130611C4.55295 0.130611 0.0856553 4.59755 0.0835129 10.088C0.0827449 11.8432 0.541298 13.5563 1.41277 15.0664L0 20.2266L5.27898 18.8419C6.73347 19.6352 8.37111 20.0534 10.0378 20.054H10.0418C10.0415 20.054 10.0421 20.054 10.0418 20.054C15.53 20.054 19.9977 15.5866 20 10.096C20.001 7.43513 18.9661 4.93322 17.086 3.05102ZM10.0418 18.3722H10.0384C8.55329 18.3716 7.09658 17.9726 5.82578 17.2185L5.52358 17.0391L2.39095 17.8608L3.22713 14.8066L3.03032 14.4934C2.20182 13.1756 1.76424 11.6525 1.76489 10.0886C1.76667 5.52512 5.47972 1.81247 10.0451 1.81247C12.2558 1.81316 14.334 2.67525 15.8967 4.23973C17.4594 5.8042 18.3195 7.88374 18.3186 10.0953C18.3167 14.6591 14.6038 18.3722 10.0418 18.3722Z" fill="#747474"/>
<path fill-rule="evenodd" clip-rule="evenodd" d="M14.5814 12.1733C14.3326 12.0487 13.1093 11.4469 12.8812 11.3638C12.6532 11.2807 12.4873 11.2392 12.3214 11.4883C12.1556 11.7373 11.6787 12.2978 11.5335 12.4639C11.3884 12.6299 11.2432 12.6508 10.9945 12.5261C10.7457 12.4016 9.94392 12.1389 8.99355 11.2912C8.25381 10.6314 7.75447 9.81662 7.60927 9.56746C7.46416 9.31841 7.59383 9.18377 7.71842 9.05967C7.83035 8.94814 7.96726 8.76907 8.09168 8.62375C8.21606 8.47851 8.25753 8.37463 8.34048 8.20869C8.42343 8.0426 8.38199 7.89728 8.31974 7.77278C8.25753 7.64823 7.75993 6.42351 7.5526 5.92522C7.35057 5.44011 7.14547 5.50584 6.99271 5.49812C6.84779 5.49088 6.6817 5.48939 6.51584 5.48939C6.34999 5.48939 6.08037 5.55168 5.85235 5.80072C5.62428 6.04985 4.98145 6.65186 4.98145 7.87646C4.98145 9.10122 5.87304 10.2844 5.99747 10.4504C6.12185 10.6165 7.75201 13.1297 10.248 14.2075C10.8417 14.4639 11.3051 14.617 11.6665 14.7316C12.2626 14.921 12.805 14.8943 13.2337 14.8302C13.7118 14.7588 14.7059 14.2283 14.9132 13.6471C15.1206 13.0659 15.1206 12.5676 15.0583 12.4639C14.9961 12.3601 14.8302 12.2978 14.5814 12.1733Z" fill="#747474"/>
</g>
<defs>
<clipPath id="clip0_211_170">
<rect width="20" height="20" fill="white"/>
</clipPath>
</defs>
</svg>
