<svg width="10" height="11" viewBox="0 0 10 11" fill="none" xmlns="http://www.w3.org/2000/svg">
<path d="M8.29297 0.793091C8.68349 0.402567 9.31651 0.402567 9.70703 0.793091C10.0975 1.18362 10.0975 1.81665 9.70703 2.20715L6.41406 5.50012L9.70703 8.79309C10.0973 9.18363 10.0975 9.81671 9.70703 10.2072C9.31659 10.5976 8.68351 10.5974 8.29297 10.2072L5 6.91418L1.70703 10.2072C1.31652 10.5975 0.683444 10.5975 0.292969 10.2072C-0.0975007 9.81668 -0.097391 9.18363 0.292969 8.79309L3.58594 5.50012L0.292969 2.20715C-0.0975554 1.81663 -0.097555 1.18362 0.292969 0.793091C0.683493 0.402567 1.31651 0.402567 1.70703 0.793091L5 4.08606L8.29297 0.793091Z" fill="#8A8A8A"/>
</svg>
