<svg width="64" height="32" viewBox="0 0 64 32" fill="none" xmlns="http://www.w3.org/2000/svg">
<path d="M60.0273 6.41479e-09C61.0889 -5.9287e-05 62.0866 0.41093 62.8369 1.15723C63.5873 1.90377 64.0004 2.89706 64 3.95312V28.0479C64.0003 29.1034 63.5872 30.0963 62.8369 30.8428C62.0867 31.589 61.0889 32.0001 60.0273 32H14.6699C13.6086 32 12.6107 31.5893 11.8604 30.8428L1.16309 18.7949C0.412402 18.0481 -0.000596057 17.0557 1.08778e-06 16C-0.000773633 14.9458 0.412295 13.952 1.16309 13.2051L11.8604 1.1582C12.6107 0.41166 13.6086 6.74015e-07 14.6699 6.41479e-09H60.0273ZM10.7441 12.3271C8.79204 12.3271 7.20913 13.8987 7.20899 15.8379C7.20899 17.7772 8.79195 19.3496 10.7441 19.3496C12.6963 19.3496 14.2793 17.7772 14.2793 15.8379C14.2792 13.8987 12.6962 12.3272 10.7441 12.3271Z" fill="#FE0000"/>
</svg>
