<?xml version="1.0" encoding="utf-8"?><svg style="position: absolute; width: 0; height: 0; visibility: hidden;" xmlns="http://www.w3.org/2000/svg" xmlns:xlink="http://www.w3.org/1999/xlink"><symbol viewBox="0 0 19 16" id="cardslider_main_arrow" xmlns="http://www.w3.org/2000/svg"><path d="M18 9.01a1 1 0 100-2v2zM.293 7.303a1 1 0 000 1.414l6.364 6.364a1 1 0 001.414-1.414L2.414 8.01l5.657-5.657A1 1 0 006.657.94L.293 7.303zM18 8.01v-1H1v2h17v-1z"/></symbol><symbol viewBox="0 0 15 15" id="close"><path fill-rule="evenodd" clip-rule="evenodd" d="M.346 12.984a1.181 1.181 0 001.67 1.67L7.5 9.17l5.483 5.484a1.18 1.18 0 101.67-1.67L9.17 7.5l5.483-5.484a1.18 1.18 0 10-1.67-1.67L7.5 5.83 2.016.346a1.18 1.18 0 10-1.67 1.67L5.83 7.5.346 12.984z"/></symbol></svg>