<?xml version="1.0" encoding="utf-8"?><svg style="position: absolute; width: 0; height: 0; visibility: hidden;" xmlns="http://www.w3.org/2000/svg" xmlns:xlink="http://www.w3.org/1999/xlink"><symbol viewBox="0 0 9 6" id="arrow" xmlns="http://www.w3.org/2000/svg"><path fill-rule="evenodd" clip-rule="evenodd" d="M8.821 1.225L4.932 5.79a.55.55 0 01-.864 0L.179 1.225a.808.808 0 010-1.015.55.55 0 01.864 0L4.5 4.268 7.957.21a.55.55 0 01.864 0 .808.808 0 010 1.015z"/></symbol><symbol viewBox="0 0 19 16" id="cardslider_main_arrow" xmlns="http://www.w3.org/2000/svg"><path d="M18 9.01a1 1 0 100-2v2zM.293 7.303a1 1 0 000 1.414l6.364 6.364a1 1 0 001.414-1.414L2.414 8.01l5.657-5.657A1 1 0 006.657.94L.293 7.303zM18 8.01v-1H1v2h17v-1z"/></symbol><symbol viewBox="0 0 29 29" id="cart" xmlns="http://www.w3.org/2000/svg"><path d="M11.15 27a.15.15 0 00-.3 0 .15.15 0 00.3 0zm1.7 0a1.85 1.85 0 11-3.7 0 1.85 1.85 0 013.7 0zm11.3 0a.15.15 0 00-.3 0 .15.15 0 00.3 0zm1.7 0a1.85 1.85 0 11-3.7 0 1.85 1.85 0 013.7 0zM5.348.15a.85.85 0 01.84.725L9.342 22.15H26l.087.004a.85.85 0 010 1.692L26 23.85H8.608a.85.85 0 01-.84-.725L4.614 1.85H1a.85.85 0 110-1.7h4.348z"/><path d="M27.472 5.15v.001c.235 0 .459.064.653.177.145.084.268.192.37.314l.093.125.078.131c.048.09.086.185.115.28l.036.145.023.148c.016.147.013.297-.01.443l-1.901 11.7a1.54 1.54 0 01-.42.837 1.32 1.32 0 01-.938.398H9.111a.85.85 0 110-1.699h16.17l1.835-11.3H7a.85.85 0 110-1.7h20.472z"/></symbol><symbol viewBox="0 0 16 16" id="catalog_btn" xmlns="http://www.w3.org/2000/svg"><rect width="6" height="6" rx="1"/><rect y="10" width="6" height="6" rx="1"/><rect x="10" width="6" height="6" rx="1"/><rect x="10" y="10" width="6" height="6" rx="1"/></symbol><symbol viewBox="0 0 15 15" id="close"><path fill-rule="evenodd" clip-rule="evenodd" d="M.346 12.984a1.181 1.181 0 001.67 1.67L7.5 9.17l5.483 5.484a1.18 1.18 0 101.67-1.67L9.17 7.5l5.483-5.484a1.18 1.18 0 10-1.67-1.67L7.5 5.83 2.016.346a1.18 1.18 0 10-1.67 1.67L5.83 7.5.346 12.984z"/></symbol><symbol viewBox="0 0 29 29" id="compare" xmlns="http://www.w3.org/2000/svg"><path d="M1.85 28a.85.85 0 11-1.7 0V1a.85.85 0 111.7 0v27zm21 0a.85.85 0 11-1.7 0V1a.85.85 0 111.7 0v27zm-14 0l-.004.087a.85.85 0 01-1.692 0L7.15 28V7a.85.85 0 111.7 0v21zm20 0l-.004.087a.85.85 0 01-1.692 0L27.15 28V7a.85.85 0 111.7 0v21zm-13 0a.85.85 0 11-1.7 0V14a.85.85 0 111.7 0v14z"/></symbol><symbol viewBox="0 0 29 29" id="favorites" xmlns="http://www.w3.org/2000/svg"><path d="M27.15 8.94c0-3.386-2.664-6.09-5.9-6.09-1.557 0-3.049.89-4.219 1.897a13.337 13.337 0 00-1.724 1.802l-.091.119-.022.028-.004.006a.85.85 0 01-1.38 0l-.004-.006-.022-.028-.09-.12a13.337 13.337 0 00-1.725-1.802C10.799 3.74 9.307 2.85 7.75 2.85c-3.236 0-5.9 2.704-5.9 6.09 0 1.428.27 3.89 1.937 6.893 1.669 3.006 4.764 6.6 10.48 10.249a.442.442 0 00.233.068c.08 0 .159-.023.231-.068 5.717-3.65 8.813-7.243 10.482-10.249 1.667-3.003 1.937-5.465 1.937-6.894zm1.7 0c0 1.664-.32 4.42-2.15 7.718-1.83 3.294-5.14 7.084-11.052 10.858l-.002.002a2.143 2.143 0 01-2.292 0l-.002-.002C7.44 23.742 4.129 19.952 2.3 16.658.47 13.361.15 10.604.15 8.94c0-4.28 3.38-7.79 7.6-7.79 2.17 0 4.054 1.213 5.327 2.309A14.965 14.965 0 0114.5 4.866c.354-.4.837-.903 1.423-1.407 1.273-1.096 3.156-2.309 5.327-2.309 4.219 0 7.6 3.51 7.6 7.79z"/></symbol><symbol viewBox="0 0 14 18" id="load" xmlns="http://www.w3.org/2000/svg"><path d="M13 16.25a.75.75 0 010 1.5H1a.75.75 0 010-1.5h12zm-.692-8.554a.751.751 0 010 1.062L7.534 13.53a.75.75 0 01-1.06 0L1.7 8.758a.751.751 0 011.062-1.062l3.492 3.494V1a.75.75 0 011.5 0v10.19l3.492-3.494a.751.751 0 011.062 0z"/></symbol><symbol viewBox="0 0 18 18" id="menu_icon_1" xmlns="http://www.w3.org/2000/svg"><path d="M3.976 8c.321.419.756 1.108 1.33 1.5h7.388c.574-.392 1.009-1.081 1.33-1.5.873-1.139 1.109-3.63 1.118-3.678a.527.527 0 00-.517-.63H9.528v-2.04a.598.598 0 011.195 0 .527.527 0 001.054 0c0-.91-.74-1.652-1.652-1.652-.91 0-1.652.741-1.652 1.652v2.04H7.278v-.598a.527.527 0 00-1.055 0v.597H3.375a.528.528 0 00-.517.631c.01.048.245 2.54 1.118 3.678zM18 14.86c0 1.731-.712 3.14-1.588 3.14H1.588C.712 18 0 16.591 0 14.86V10h18v4.86zM5 13a1 1 0 100 2 1 1 0 000-2zm8 0a1 1 0 100 2 1 1 0 000-2z"/></symbol><symbol viewBox="0 0 18 18" id="menu_icon_2" xmlns="http://www.w3.org/2000/svg"><path d="M9 12.798a.602.602 0 100-1.205.602.602 0 000 1.205zm0-6.391a.602.602 0 100-1.205.602.602 0 000 1.205z"/><path d="M17.515.486A1.645 1.645 0 0016.343 0h-6.31A1.65 1.65 0 008.86.485L.486 8.861A1.643 1.643 0 000 10.033c0 .442.172.859.486 1.171l6.31 6.31A1.64 1.64 0 007.967 18c.443 0 .859-.172 1.172-.485l8.376-8.376c.313-.313.485-.73.485-1.172v-6.31c0-.443-.172-.859-.485-1.171zM9 4.148c.914 0 1.657.743 1.657 1.657A1.66 1.66 0 019 7.462a1.659 1.659 0 01-1.657-1.657c0-.914.743-1.657 1.657-1.657zm0 9.704a1.659 1.659 0 01-1.657-1.657c0-.913.743-1.657 1.657-1.657s1.657.744 1.657 1.657c0 .914-.743 1.657-1.657 1.657zm3.39-4.325H5.61a.527.527 0 010-1.054h6.778a.527.527 0 010 1.054zm2.258-5.648a.528.528 0 110-1.055.528.528 0 010 1.055z"/></symbol><symbol viewBox="0 0 19 8" id="pagination_arrow" xmlns="http://www.w3.org/2000/svg"><path d="M1 3.49a.5.5 0 000 1v-1zm17.354.854a.5.5 0 000-.707L15.172.455a.5.5 0 10-.708.707l2.829 2.828-2.829 2.829a.5.5 0 10.708.707l3.182-3.182zM1 3.99v.5h17v-1H1v.5z"/></symbol><symbol viewBox="0 0 16 16" id="place" xmlns="http://www.w3.org/2000/svg"><path d="M8 0a6.008 6.008 0 00-6 6c0 4.307 5.59 9.703 5.827 9.93a.247.247 0 00.345 0C8.41 15.703 14 10.307 14 6a6.008 6.008 0 00-6-6zm0 8.75a2.75 2.75 0 110-5.5 2.75 2.75 0 010 5.5z"/></symbol><symbol viewBox="0 0 20 20" id="remove" xmlns="http://www.w3.org/2000/svg"><path d="M16.816 1.818h-4.09v-.454A1.364 1.364 0 0011.361 0H8.18a1.364 1.364 0 00-1.364 1.364v.454H3.18a1.364 1.364 0 00-1.364 1.364v.909a1.364 1.364 0 00.92 1.284l.389 12.423A2.262 2.262 0 005.398 20H14.6a2.262 2.262 0 002.272-2.202l.389-12.423a1.363 1.363 0 00.919-1.284v-.91a1.364 1.364 0 00-1.364-1.363zm-9.09-.454A.455.455 0 018.18.909h3.182a.455.455 0 01.454.455v.454h-4.09v-.454zm8.237 16.406a1.358 1.358 0 01-1.364 1.32H5.397a1.358 1.358 0 01-1.364-1.32L3.65 5.455h12.698l-.384 12.315zM17.27 4.09a.455.455 0 01-.455.455H3.18a.455.455 0 01-.455-.454v-.91a.455.455 0 01.455-.454h13.636a.455.455 0 01.455.455v.909z"/><path d="M9.998 7.727a.455.455 0 00-.455.455v8.182a.455.455 0 00.91 0V8.182a.454.454 0 00-.455-.455zm3.197 0a.442.442 0 00-.468.442l-.227 8.182a.454.454 0 00.442.467h.013a.454.454 0 00.454-.442l.227-8.181a.454.454 0 00-.441-.468zm-6.39 0a.454.454 0 00-.442.468l.228 8.181a.455.455 0 00.454.442h.013a.457.457 0 00.442-.467l-.227-8.182a.454.454 0 00-.468-.442z"/></symbol><symbol viewBox="0 0 18 18" id="search" xmlns="http://www.w3.org/2000/svg"><path d="M14.565 8.158a6.408 6.408 0 10-12.817 0 6.408 6.408 0 0012.817 0zm1.5 0a7.906 7.906 0 01-1.808 5.032l3.274 3.28.051.057a.75.75 0 01-1.056 1.054l-.057-.05-3.273-3.28A7.906 7.906 0 01.25 8.158a7.908 7.908 0 0115.815 0z"/></symbol><symbol viewBox="0 0 19 16" id="slider_arrow" xmlns="http://www.w3.org/2000/svg"><path d="M18 9.01a1 1 0 100-2v2zM.293 7.303a1 1 0 000 1.414l6.364 6.364a1 1 0 001.414-1.414L2.414 8.01l5.657-5.657A1 1 0 006.657.94L.293 7.303zM18 8.01v-1H1v2h17v-1z"/></symbol><symbol viewBox="0 0 18 18" id="tab_icon_1" xmlns="http://www.w3.org/2000/svg"><path d="M6.938 0H1.313C.589 0 0 .589 0 1.313v3.375C0 5.41.589 6 1.313 6h5.625C7.66 6 8.25 5.411 8.25 4.687V1.313C8.25.59 7.661 0 6.937 0zm0 7.5H1.313C.589 7.5 0 8.089 0 8.813v7.874C0 17.412.589 18 1.313 18h5.625c.723 0 1.312-.589 1.312-1.313V8.813c0-.723-.589-1.312-1.313-1.312zm9.75 4.5h-5.625c-.724 0-1.313.589-1.313 1.313v3.374c0 .724.589 1.313 1.313 1.313h5.624c.724 0 1.313-.589 1.313-1.313v-3.375C18 12.59 17.411 12 16.687 12zm0-12h-5.625C10.338 0 9.75.589 9.75 1.313v7.875c0 .723.589 1.312 1.313 1.312h5.624c.724 0 1.313-.589 1.313-1.313V1.314C18 .589 17.411 0 16.687 0z"/></symbol><symbol viewBox="0 0 18 18" id="tab_icon_2" xmlns="http://www.w3.org/2000/svg"><path d="M17.357 14.143a.643.643 0 01-.642-.643V1.286H4.5A.643.643 0 014.5 0h12.857c.356 0 .643.288.643.643V13.5a.643.643 0 01-.643.643z"/><path d="M15.429 16.071a.643.643 0 01-.643-.643V3.214H2.572a.643.643 0 010-1.286h12.857c.355 0 .643.288.643.643v12.857a.643.643 0 01-.643.643z"/><rect y="4" width="14" height="14" rx="1"/></symbol><symbol viewBox="0 0 18 18" id="tab_icon_3" xmlns="http://www.w3.org/2000/svg"><path d="M11.236 2.736l-7.903-.863V.646H15c.795 0 1.558.284 2.12.787.563.503.88 1.186.88 1.897v1.79h-5.333v-.908a1.415 1.415 0 00-.41-.975 1.74 1.74 0 00-1.021-.501zm1.43 2.98H18V6.91l-5.333.007v-1.2zM18 17.646h-6v-4.175c0-.498-.198-.98-.56-1.358a2.413 2.413 0 00-1.412-.704l-4.995-.433a.375.375 0 00-.256.076.302.302 0 00-.08.1.272.272 0 00-.03.12v1.006H0V9.614c0-.553.246-1.083.683-1.474a2.482 2.482 0 011.647-.613L18 7.506v10.14z"/><path d="M4.809 15.273L3.36 12.817a.389.389 0 00-.152-.125.481.481 0 00-.414 0 .39.39 0 00-.152.125l-1.45 2.456a.298.298 0 00-.026.055 1.397 1.397 0 00-.166.65c0 .443.21.867.586 1.18.375.312.884.488 1.414.488.53 0 1.04-.176 1.414-.488.375-.313.586-.737.586-1.18 0-.223-.057-.444-.166-.65a.284.284 0 00-.025-.055z"/></symbol><symbol viewBox="0 0 18 18" id="tab_icon_4" xmlns="http://www.w3.org/2000/svg"><path d="M16.493 15.375l.258-1.985a33.976 33.976 0 000-8.763l-.25-1.924c.023-.1.127-.466.584-1.623a.774.774 0 00-.988-1.008C14.61.625 13.992.784 13.86.79H6.437C6.302.784 5.668.62 4.14.049a.769.769 0 00-.795.158.767.767 0 00-.217.781c.317 1.095.386 1.427.401 1.515l-.276 2.124a34.603 34.603 0 00-.267 3.584 3.955 3.955 0 011.703 1.91 4.02 4.02 0 012.6 1.132 4.023 4.023 0 011.193 2.335 4.064 4.064 0 013.055 3.64h2.848c.086.025.436.147 1.632.7a.774.774 0 00.855-.14.77.77 0 00.187-.846c-.441-1.113-.543-1.47-.566-1.567z"/><path d="M7.92 14.554l-.44-.06-.016-.444a2.975 2.975 0 00-3.119-2.874l-.405.018-.122-.386c-.394-1.24-1.48-2.041-2.767-2.041H.875l-.014 8.92h9.63v-.175a2.997 2.997 0 00-2.572-2.958zm-5.051-.495a.538.538 0 01-.529-.529c-.013-.285.252-.528.529-.528.296 0 .515.242.528.528.013.286-.252.529-.528.529zm2.384 2.243a.538.538 0 01-.529-.528c-.012-.286.252-.529.529-.529.296 0 .516.242.528.529.013.285-.252.528-.528.528z"/></symbol><symbol viewBox="0 0 20 20" id="tg_icon" xmlns="http://www.w3.org/2000/svg"><path d="M7.848 12.65l-.331 4.654c.473 0 .678-.203.924-.447l2.22-2.121 4.598 3.367c.843.47 1.437.223 1.665-.776l3.018-14.143c.268-1.247-.45-1.735-1.272-1.429L.928 8.547c-1.21.47-1.192 1.146-.205 1.451l4.535 1.411 10.536-6.592c.496-.329.947-.147.576.181l-8.522 7.653z"/></symbol><symbol viewBox="0 0 29 29" id="user" xmlns="http://www.w3.org/2000/svg"><path d="M27.15 28v-1.2c0-1.864-.684-3.64-1.883-4.939-1.197-1.297-2.806-2.011-4.467-2.011H8.2c-1.661 0-3.27.714-4.467 2.011-1.199 1.3-1.883 3.075-1.883 4.939V28a.85.85 0 11-1.7 0v-1.2c0-2.273.833-4.466 2.334-6.092C3.988 19.079 6.042 18.15 8.2 18.15h12.6c2.158 0 4.212.93 5.716 2.558 1.5 1.626 2.334 3.819 2.334 6.092V28a.85.85 0 11-1.7 0zm-7-20.5a5.65 5.65 0 10-11.301 0 5.65 5.65 0 0011.301 0zm1.7 0a7.35 7.35 0 11-14.7 0 7.35 7.35 0 1114.7 0z"/></symbol><symbol viewBox="0 0 20 20" id="vk_icon" xmlns="http://www.w3.org/2000/svg"><path d="M19.894 14.6a1.36 1.36 0 00-.068-.13c-.347-.625-1.01-1.392-1.989-2.302l-.02-.02-.01-.01-.011-.011h-.01c-.445-.424-.726-.709-.844-.854-.216-.278-.264-.56-.146-.844.083-.215.396-.67.937-1.364.285-.368.51-.663.677-.885 1.201-1.597 1.722-2.617 1.562-3.061l-.062-.104c-.042-.063-.15-.12-.323-.172-.174-.052-.396-.06-.666-.026l-3 .02a.39.39 0 00-.208.006l-.135.031-.052.026-.042.032a.463.463 0 00-.114.109.716.716 0 00-.104.182c-.327.84-.698 1.621-1.114 2.343-.257.43-.493.804-.709 1.12a5.388 5.388 0 01-.541.697c-.146.15-.278.269-.396.36-.118.09-.208.128-.27.114a7.788 7.788 0 01-.178-.042.693.693 0 01-.234-.255 1.141 1.141 0 01-.12-.406 4.45 4.45 0 01-.036-.422 8.705 8.705 0 01.005-.5c.007-.215.01-.36.01-.437 0-.264.006-.55.016-.86l.026-.733c.007-.18.01-.372.01-.573 0-.201-.012-.36-.036-.474a1.62 1.62 0 00-.109-.333.561.561 0 00-.213-.25 1.204 1.204 0 00-.35-.14c-.367-.084-.836-.129-1.405-.136-1.291-.014-2.12.07-2.489.25-.146.076-.278.18-.396.312-.125.153-.142.237-.052.25.417.063.712.212.885.448l.063.125c.049.09.097.25.146.479.048.23.08.482.093.76.035.507.035.94 0 1.302a15.51 15.51 0 01-.098.843 1.689 1.689 0 01-.266.719.18.18 0 01-.052.052.78.78 0 01-.281.052c-.098 0-.216-.049-.354-.146a2.499 2.499 0 01-.432-.401 5.36 5.36 0 01-.506-.713A12.447 12.447 0 015.3 7.545l-.166-.302a25.973 25.973 0 01-.427-.849c-.18-.371-.34-.73-.48-1.078a.687.687 0 00-.249-.333l-.052-.031a.713.713 0 00-.167-.089 1.106 1.106 0 00-.24-.067l-2.852.02c-.292 0-.49.066-.594.198l-.042.063A.337.337 0 000 5.243c0 .077.02.17.063.281.416.98.869 1.924 1.358 2.833.49.91.915 1.642 1.276 2.197.36.555.729 1.08 1.104 1.572.375.493.623.81.744.948.122.139.217.243.287.312l.26.25c.167.167.411.366.734.599.323.233.68.462 1.073.687.392.226.848.41 1.37.552.52.143 1.027.2 1.52.172h1.197c.243-.02.427-.097.552-.23l.041-.051a.687.687 0 00.078-.193c.025-.087.037-.182.037-.286a3.429 3.429 0 01.067-.807c.052-.24.111-.42.178-.541a1.326 1.326 0 01.4-.459.695.695 0 01.084-.036c.166-.055.362-.002.588.162.226.163.438.364.636.604.197.24.435.508.713.807.278.298.52.52.729.666l.208.125c.139.083.32.16.542.23.221.069.416.086.583.051l2.665-.041c.264 0 .469-.044.614-.13.146-.087.233-.183.26-.287a.805.805 0 00.006-.354 1.308 1.308 0 00-.073-.276z"/></symbol><symbol viewBox="0 0 20 20" id="wa_icon" xmlns="http://www.w3.org/2000/svg"><path fill-rule="evenodd" clip-rule="evenodd" d="M17.086 3.051a9.894 9.894 0 00-7.044-2.92C4.553.13.086 4.598.084 10.088a9.94 9.94 0 001.329 4.978L0 20.226l5.279-1.384a9.95 9.95 0 004.759 1.212h.004c5.488 0 9.956-4.467 9.958-9.958a9.898 9.898 0 00-2.914-7.045zm-7.044 15.321h-.004c-1.485 0-2.941-.4-4.212-1.154l-.302-.179-3.133.822.836-3.054-.197-.314a8.257 8.257 0 01-1.265-4.404c.002-4.564 3.715-8.277 8.28-8.277a8.22 8.22 0 015.852 2.428 8.227 8.227 0 012.422 5.855c-.002 4.564-3.715 8.277-8.277 8.277z"/><path fill-rule="evenodd" clip-rule="evenodd" d="M14.581 12.173c-.248-.124-1.472-.726-1.7-.81-.228-.082-.394-.124-.56.125-.165.25-.642.81-.787.976-.146.166-.29.187-.54.062-.248-.124-1.05-.387-2-1.235-.74-.66-1.24-1.474-1.385-1.724-.145-.249-.015-.383.11-.507.111-.112.248-.29.373-.436.124-.145.166-.25.248-.415.083-.166.042-.312-.02-.436-.062-.125-.56-1.35-.767-1.848-.202-.485-.408-.42-.56-.427a9.94 9.94 0 00-.477-.009.914.914 0 00-.664.312c-.228.249-.87.85-.87 2.075s.891 2.408 1.015 2.574c.125.167 1.755 2.68 4.251 3.758.594.256 1.057.409 1.418.524.597.189 1.139.162 1.568.098.478-.071 1.472-.602 1.68-1.183.207-.581.207-1.08.144-1.183-.062-.104-.228-.166-.477-.29z"/></symbol></svg>