<svg width="20" height="20" viewBox="0 0 20 20" fill="none" xmlns="http://www.w3.org/2000/svg">
<g clip-path="url(#clip0_612_5552)">
<path d="M5.46998 2.71409L18.3785 2.71409C18.6139 2.71409 18.8042 2.52381 18.8042 2.28836C18.8042 2.05291 18.6139 1.86262 18.3785 1.86262L5.47045 1.86262C5.26991 0.804192 4.34134 -6.32192e-07 3.22507 -6.80985e-07C1.9636 -7.36126e-07 0.936714 1.02649 0.936714 2.28835C0.936714 3.55022 1.9636 4.57671 3.22507 4.57671C4.34095 4.57671 5.26991 3.77252 5.46998 2.71409ZM1.78779 2.28835C1.78779 1.49606 2.43278 0.85147 3.22468 0.85147C4.01697 0.85147 4.66156 1.49606 4.66156 2.28835C4.66156 3.08065 4.01697 3.72524 3.22468 3.72524C2.43238 3.72524 1.78779 3.08065 1.78779 2.28835Z" fill="#101010"/>
<path d="M19.0635 17.7117C19.0635 16.4502 18.037 15.4233 16.7751 15.4233C15.6592 15.4233 14.7303 16.2275 14.5302 17.2859L1.6218 17.2859C1.38682 17.2859 1.19607 17.4767 1.19607 17.7117C1.19607 17.9471 1.38682 18.1374 1.6218 18.1374L14.5302 18.1374C14.7307 19.1958 15.6592 20 16.7751 20C18.037 20 19.0635 18.974 19.0635 17.7117ZM15.3382 17.7117C15.3382 16.9198 15.9828 16.2748 16.7751 16.2748C17.5674 16.2748 18.212 16.9198 18.212 17.7117C18.212 18.504 17.5674 19.1485 16.7751 19.1485C15.9828 19.1485 15.3382 18.504 15.3382 17.7117Z" fill="#101010"/>
<path d="M12.3747 10.3417L18.3785 10.3417C18.6139 10.3417 18.8042 10.1514 18.8042 9.91592C18.8042 9.68094 18.6139 9.49018 18.3785 9.49018L12.3747 9.49018C12.1741 8.43176 11.2456 7.62756 10.1297 7.62756C9.01386 7.62756 8.0849 8.43176 7.88482 9.49018L1.88101 9.49018C1.64556 9.49018 1.45528 9.68094 1.45528 9.91592C1.45528 10.1514 1.64556 10.3417 1.88101 10.3417L7.88436 10.3417C8.08489 11.4001 9.01339 12.2043 10.1293 12.2043C11.2452 12.2043 12.1741 11.4005 12.3747 10.3417ZM8.7644 10.3417C8.72181 10.2067 8.69285 10.0657 8.69285 9.91592C8.69285 9.76688 8.72181 9.6256 8.7644 9.49018C8.94748 8.90688 9.48687 8.47903 10.1297 8.47903C10.7726 8.47903 11.312 8.90688 11.4951 9.49018C11.5377 9.6256 11.5666 9.76688 11.5666 9.91592C11.5666 10.0658 11.5377 10.2067 11.4951 10.3417C11.312 10.9253 10.7726 11.3528 10.1297 11.3528C9.48687 11.3528 8.94701 10.9253 8.7644 10.3417Z" fill="#101010"/>
</g>
<defs>
<clipPath id="clip0_612_5552">
<rect width="20" height="20" fill="white" transform="translate(20) rotate(90)"/>
</clipPath>
</defs>
</svg>
