<svg width="21" height="24" viewBox="0 0 21 24" fill="none" xmlns="http://www.w3.org/2000/svg">
<g clip-path="url(#clip0_756_18711)">
<path d="M5.97504 11.9969L2.87731 13.8019L0 18.8378L11.7297 11.9969H5.97504Z" fill="#8F4794"/>
<path d="M14.8266 6.84082L11.7289 8.64578L8.85156 13.6816L20.5812 6.84082H14.8266Z" fill="#E40646"/>
<path d="M11.7289 5.03585L8.85156 0V10.3184V13.6816V24L11.7289 18.9642V5.03585Z" fill="#F9B429"/>
<path d="M8.85156 0L11.7289 5.03585L14.8266 6.84081H20.5812L8.85156 0Z" fill="#EF8019"/>
<path d="M8.85156 10.3184V24L11.7289 18.9641V15.3542L8.85156 10.3184Z" fill="#78B72A"/>
<path d="M14.8266 17.1592L11.7289 18.9641L8.85156 24L20.5812 17.1592H14.8266Z" fill="#00853F"/>
<path d="M0 5.16223V18.8378L2.87731 13.808V10.1921L0 5.16223Z" fill="#5B57A2"/>
<path d="M8.85236 10.3184L8.85831 10.3244L0 5.16223L2.87731 10.1921L14.8274 17.1592H20.582L8.85236 10.3184Z" fill="#0698D6"/>
</g>
<defs>
<clipPath id="clip0_756_18711">
<rect width="21" height="24" fill="white"/>
</clipPath>
</defs>
</svg>
