<svg width="19" height="16" viewBox="0 0 19 16" fill="none" xmlns="http://www.w3.org/2000/svg">
<path d="M18 9.01001C18.5523 9.01001 19 8.56229 19 8.01001C19 7.45773 18.5523 7.01001 18 7.01001L18 9.01001ZM0.292893 7.3029C-0.0976314 7.69343 -0.0976315 8.32659 0.292892 8.71711L6.65685 15.0811C7.04738 15.4716 7.68054 15.4716 8.07107 15.0811C8.46159 14.6906 8.46159 14.0574 8.07107 13.6669L2.41421 8.01001L8.07107 2.35315C8.46159 1.96263 8.46159 1.32947 8.07107 0.938941C7.68054 0.548417 7.04738 0.548417 6.65686 0.938941L0.292893 7.3029ZM18 8.01001L18 7.01001L1 7.01001L1 8.01001L1 9.01001L18 9.01001L18 8.01001Z" fill="#101010"/>
</svg>
