<svg width="46" height="23" viewBox="0 0 46 23" fill="none" xmlns="http://www.w3.org/2000/svg">
<path d="M43.1904 0C43.9412 2.6143e-05 44.6471 0.292806 45.1777 0.824219C45.7083 1.35571 46.0003 2.06267 46 2.81445V19.9688C46.0003 20.7203 45.7083 21.4275 45.1777 21.959C44.6472 22.4904 43.9412 22.7832 43.1904 22.7832H11.1104C10.3598 22.7832 9.65372 22.4905 9.12305 21.959L1.55762 13.3818C1.02669 12.8501 0.733955 12.1432 0.734376 11.3916C0.733828 10.6411 1.02667 9.93414 1.55762 9.40234L9.12305 0.824219C9.65372 0.292737 10.3598 4.29108e-05 11.1104 0H43.1904ZM8.33399 8.77637C6.95327 8.77637 5.83399 9.89566 5.83399 11.2764C5.83399 12.6571 6.95327 13.7764 8.33399 13.7764C9.7147 13.7764 10.834 12.6571 10.834 11.2764C10.834 9.89566 9.7147 8.77637 8.33399 8.77637Z" fill="#FE0000"/>
</svg>
